<?xml version="1.0" encoding="UTF-8" standalone="no"?>
<!DOCTYPE svg PUBLIC "-//W3C//DTD SVG 1.1//EN" "http://www.w3.org/Graphics/SVG/1.1/DTD/svg11.dtd">
<svg width="100%" height="100%" viewBox="0 0 550 476" version="1.1" xmlns="http://www.w3.org/2000/svg" xmlns:xlink="http://www.w3.org/1999/xlink" xml:space="preserve" xmlns:serif="http://www.serif.com/" style="fill-rule:evenodd;clip-rule:evenodd;stroke-linecap:round;stroke-linejoin:round;stroke-miterlimit:1.5;">
    <g transform="matrix(2.52935,0,0,2.52935,-233.438,-78.4316)">
        <g transform="matrix(0.293375,0,0,0.293375,-229.541,-62.1646)">
            <path d="M1499.79,670.387C1492.09,625.485 1482.64,579.685 1471.1,536.584C1528.27,324.592 1636.29,179.482 1836.67,531.672C1778.15,431.076 1661.72,397.752 1623.33,406.429C1561.39,420.431 1523.04,543.824 1499.79,670.387Z" style="fill:none;stroke:rgb(253,168,0);stroke-width:2.7px;"/>
        </g>
        <g transform="matrix(0.293375,0,0,0.293375,38.8973,-14.051)">
            <path d="M608.667,794.339C608.667,794.339 554.114,-276.311 182,367.672L251,367.672C251,367.672 479.755,-101.053 552,794.339L608.667,794.339Z" style="fill:rgb(48,53,54);"/>
        </g>
    </g>
</svg>
